HIERARCHY
ROOT SpineBase
{
  OFFSET 0.000000 0.000000 0.000000
  CHANNELS 6 Xposition Yposition Zposition Zrotation Xrotation Yrotation
  JOINT SpineMid
  {
    OFFSET 0.000000 32.310695 -0.000000
    CHANNELS 3 Zrotation Xrotation Yrotation
    JOINT SpineShoulder
    {
      OFFSET 0.198163 23.977529 -0.751948
      CHANNELS 3 Zrotation Xrotation Yrotation
      JOINT Neck
      {
        OFFSET 0.138587 7.920419 -0.574742
        CHANNELS 3 Zrotation Xrotation Yrotation
        JOINT Head
        {
          OFFSET -5.429047 14.316610 -1.324168
          CHANNELS 3 Zrotation Xrotation Yrotation
          End Site
          {
            OFFSET 0 0 0
          }
        }
      }
      JOINT ShoulderLeft
      {
        OFFSET -17.742671 -6.206269 6.123380
        CHANNELS 3 Zrotation Xrotation Yrotation
        JOINT ElbowLeft
        {
          OFFSET -1.495002 -26.607226 4.088515
          CHANNELS 3 Zrotation Xrotation Yrotation
          JOINT WristLeft
          {
            OFFSET 0.506977 -22.006529 -3.877960
            CHANNELS 3 Zrotation Xrotation Yrotation
            JOINT HandLeft
            {
              OFFSET 0.582020 -7.442419 -1.960460
              CHANNELS 3 Zrotation Xrotation Yrotation
              JOINT HandTipLeft
              {
                OFFSET 1.576139 -6.426670 -2.261546
                CHANNELS 3 Zrotation Xrotation Yrotation
                End Site
                {
                  OFFSET 0 0 0
                }
              }
              JOINT ThumbLeft
              {
                OFFSET -2.217881 -0.539806 -0.947062
                CHANNELS 3 Zrotation Xrotation Yrotation
                End Site
                {
                  OFFSET 0 0 0
                }
              }
            }
          }
        }
      }
      JOINT ShoulderRight
      {
        OFFSET 15.574186 -3.361855 -8.006819
        CHANNELS 3 Zrotation Xrotation Yrotation
        JOINT ElbowRight
        {
          OFFSET 7.866603 -26.356230 0.804173
          CHANNELS 3 Zrotation Xrotation Yrotation
          JOINT WristRight
          {
            OFFSET -0.313744 -21.547631 -4.324382
            CHANNELS 3 Zrotation Xrotation Yrotation
            JOINT HandRight
            {
              OFFSET -2.243392 -8.030635 -0.329489
              CHANNELS 3 Zrotation Xrotation Yrotation
              JOINT HandTipRight
              {
                OFFSET 0.034955 -7.571537 -1.238186
                CHANNELS 3 Zrotation Xrotation Yrotation
                End Site
                {
                  OFFSET 0 0 0
                }
              }
              JOINT ThumbRight
              {
                OFFSET 3.583541 0.010007 -0.160106
                CHANNELS 3 Zrotation Xrotation Yrotation
                End Site
                {
                  OFFSET 0 0 0
                }
              }
            }
          }
        }
      }
    }
  }
  JOINT HipLeft
  {
    OFFSET -6.142737 -0.032449 -1.121120
    CHANNELS 3 Zrotation Xrotation Yrotation
    JOINT KneeLeft
    {
      OFFSET 1.955545 -35.628323 5.803806
      CHANNELS 3 Zrotation Xrotation Yrotation
      JOINT AnkleLeft
      {
        OFFSET 3.385629 -36.003237 9.419293
        CHANNELS 3 Zrotation Xrotation Yrotation
        JOINT FootLeft
        {
          OFFSET -0.496151 -8.250694 -5.826167
          CHANNELS 3 Zrotation Xrotation Yrotation
          End Site
          {
            OFFSET 0 0 0
          }
        }
      }
    }
  }
  JOINT HipRight
  {
    OFFSET 7.720292 1.858109 -6.109760
    CHANNELS 3 Zrotation Xrotation Yrotation
    JOINT KneeRight
    {
      OFFSET 7.992046 -34.104265 2.932174
      CHANNELS 3 Zrotation Xrotation Yrotation
      JOINT AnkleRight
      {
        OFFSET 4.014168 -36.425964 8.305301
        CHANNELS 3 Zrotation Xrotation Yrotation
        JOINT FootRight
        {
          OFFSET -1.210738 -8.300945 -5.029663
          CHANNELS 3 Zrotation Xrotation Yrotation
          End Site
          {
            OFFSET 0 0 0
          }
        }
      }
    }
  }
}
MOTION
Frames: 13
Frame Time: 0.033333
-71.016090 79.996325 325.395666 -0.000000 -0.000000 19.791375 0.000000 0.000000 -19.791375 -0.000000 0.000000 0.000000 -0.000000 0.000000 0.000000 0.000000 0.000000 0.000000 -0.000000 0.000000 0.000000 -0.000000 0.000000 0.000000 -0.000000 0.000000 0.000000 -0.000000 0.000000 0.000000 0.000000 0.000000 0.000000 0.000000 0.000000 0.000000 -0.000000 0.000000 0.000000 -0.000000 0.000000 0.000000 -0.000000 0.000000 0.000000 -0.000000 0.000000 0.000000 0.000000 0.000000 0.000000 0.000000 0.000000 0.000000 0.000000 0.000000 -19.791375 -0.000000 0.000000 0.000000 -0.000000 0.000000 0.000000 0.000000 0.000000 0.000000 0.000000 0.000000 -19.791375 -0.000000 0.000000 0.000000 -0.000000 0.000000 0.000000 0.000000 0.000000 0.000000
-71.029282 80.002509 325.420149 -0.006339 0.012275 19.828460 0.001800 -0.013697 -19.828459 -0.000000 0.000000 0.000000 -0.000000 0.000000 0.000000 0.000000 0.000000 0.000000 -0.000000 0.000000 0.000000 -0.000000 0.000000 0.000000 -0.000000 0.000000 0.000000 -1.898210 0.211424 0.725864 0.000000 0.000000 0.000000 0.000000 0.000000 0.000000 -0.000000 0.000000 0.000000 -0.000000 0.000000 0.000000 0.035332 0.828925 -0.233224 -0.289315 -1.691462 0.265790 0.000000 0.000000 0.000000 0.000000 0.000000 0.000000 0.001800 -0.013697 -19.828459 -0.000000 0.000000 0.000000 -0.000000 0.000000 0.000000 0.000000 0.000000 0.000000 0.001800 -0.013697 -19.828459 -0.000000 0.000000 0.000000 -0.000000 0.000000 0.000000 0.000000 0.000000 0.000000
-71.041938 80.007283 325.445615 -0.013805 0.022230 19.855088 0.005434 -0.025598 -19.855084 -0.000000 0.000000 0.000000 -0.000000 0.000000 0.000000 0.000000 0.000000 0.000000 -0.000000 0.000000 0.000000 -0.000000 0.000000 0.000000 -0.107663 1.136073 0.117976 -3.200692 -0.624950 1.127860 0.000000 0.000000 0.000000 0.000000 0.000000 0.000000 -0.000000 0.000000 0.000000 -0.000000 0.000000 0.000000 0.065316 1.526952 -0.429967 -0.461162 -3.100851 0.473261 0.000000 0.000000 0.000000 0.000000 0.000000 0.000000 0.005434 -0.025598 -19.855084 -0.000000 0.000000 0.000000 -0.679140 0.606551 0.444872 0.000000 0.000000 0.000000 0.005434 -0.025598 -19.855084 -0.000000 0.000000 0.000000 -0.000000 0.000000 0.000000 0.000000 0.000000 0.000000
-71.054058 80.010646 325.472064 -0.022397 0.029866 19.871299 0.010911 -0.035700 -19.871290 -0.000000 0.000000 0.000000 -0.000000 0.000000 0.000000 0.000000 0.000000 0.000000 -0.000000 0.000000 0.000000 -0.000000 0.000000 0.000000 -0.142757 1.523755 0.158134 -4.085290 -0.623327 1.482477 0.000000 0.000000 0.000000 0.000000 0.000000 0.000000 -0.000000 0.000000 0.000000 -0.000000 0.000000 0.000000 0.087491 2.074586 -0.584467 -0.512691 -4.193302 0.624048 0.000000 0.000000 0.000000 0.000000 0.000000 0.000000 0.010911 -0.035700 -19.871290 -0.000000 0.000000 0.000000 -1.003604 0.927732 0.656933 0.000000 0.000000 0.000000 0.010911 -0.035700 -19.871290 -0.000000 0.000000 0.000000 -0.021234 0.836789 -0.108548 0.000000 0.000000 0.000000
-71.065644 80.012598 325.499497 -0.032113 0.035181 19.877116 0.018239 -0.044003 -19.877099 -0.000000 0.000000 0.000000 -0.000000 0.000000 0.000000 0.000000 0.000000 0.000000 -0.000000 0.000000 0.000000 -0.000000 0.000000 0.000000 -0.160103 1.742879 0.180216 -4.500275 -0.356926 1.726852 0.000000 0.000000 0.000000 0.000000 0.000000 0.000000 -0.000000 0.000000 0.000000 -0.000000 0.000000 0.000000 0.099725 2.455656 -0.691883 -0.441463 -4.939378 0.718436 0.000000 0.000000 0.000000 0.000000 0.000000 0.000000 0.018239 -0.044003 -19.877099 -0.000000 0.000000 0.000000 -1.317732 1.260637 0.861926 0.000000 0.000000 0.000000 0.018239 -0.044003 -19.877099 -0.000000 0.000000 0.000000 0.004318 0.926158 -0.137069 0.000000 0.000000 0.000000
-71.076694 80.013139 325.527913 -0.042955 0.038174 19.872538 0.027420 -0.050502 -19.872512 -0.000000 0.000000 0.000000 -0.000000 0.000000 0.000000 0.000000 0.000000 0.000000 -0.000000 0.000000 0.000000 -0.000000 0.000000 0.000000 -0.156921 1.766930 0.181229 -4.452979 0.202244 1.871292 0.000000 0.000000 0.000000 0.000000 0.000000 0.000000 -0.000000 0.000000 0.000000 -0.000000 0.000000 0.000000 0.100454 2.658296 -0.748652 -0.245513 -5.316407 0.755047 0.000000 0.000000 0.000000 0.000000 0.000000 0.000000 0.027420 -0.050502 -19.872512 -0.000000 0.000000 0.000000 -1.621339 1.605079 1.059745 0.000000 0.000000 0.000000 0.027420 -0.050502 -19.872512 -0.000000 0.000000 0.000000 0.046002 0.921782 -0.161913 0.000000 0.000000 0.000000
-71.083536 80.009533 325.550832 -0.049053 0.041009 19.829551 0.032233 -0.055217 -19.829518 -0.000000 0.000000 0.000000 -0.000000 0.000000 0.000000 0.000000 0.000000 0.000000 -0.000000 0.000000 0.000000 -0.000000 0.000000 0.000000 0.084667 1.577899 0.099569 -2.008253 2.192763 1.499275 0.000000 0.000000 0.000000 0.000000 0.000000 0.000000 -0.000000 0.000000 0.000000 -0.000000 0.000000 0.000000 -0.007370 2.359366 -0.658163 0.596662 -5.880118 0.597725 0.000000 0.000000 0.000000 0.000000 0.000000 0.000000 0.032233 -0.055217 -19.829518 -0.000000 0.000000 0.000000 -2.186863 2.335965 1.426279 0.000000 0.000000 0.000000 0.032233 -0.055217 -19.829518 -0.000000 0.000000 0.000000 0.127928 1.693268 -0.323549 0.000000 0.000000 0.000000
-71.093308 80.007417 325.577478 -0.063751 0.042430 19.754420 0.045658 -0.061480 -19.754372 -0.000000 0.000000 0.000000 -0.000000 0.000000 0.000000 0.000000 0.000000 0.000000 -0.000000 0.000000 0.000000 -0.000000 0.000000 0.000000 0.048561 1.439350 0.098835 -0.095191 3.157612 1.031023 0.000000 0.000000 0.000000 0.000000 0.000000 0.000000 -0.000000 0.000000 0.000000 -0.000000 0.000000 0.000000 0.132994 2.073213 -0.586837 1.069232 -4.874682 0.452322 0.000000 0.000000 0.000000 0.000000 0.000000 0.000000 0.045658 -0.061480 -19.754372 -0.000000 0.000000 0.000000 -2.760906 3.075041 1.802209 0.000000 0.000000 0.000000 0.045658 -0.061480 -19.754372 -0.000000 0.000000 0.000000 0.263099 1.671130 -0.403581 0.000000 0.000000 0.000000
-71.105892 80.005131 325.609532 -0.077662 0.037273 19.727697 0.060522 -0.061300 -19.727640 -0.000000 0.000000 0.000000 -0.000000 0.000000 0.000000 0.000000 0.000000 0.000000 -0.000000 0.000000 0.000000 -0.000000 0.000000 0.000000 -0.000000 0.000000 0.000000 0.260781 5.779572 1.290017 0.000000 0.000000 0.000000 0.000000 0.000000 0.000000 -0.000000 0.000000 0.000000 -0.000000 0.000000 0.000000 -0.153324 1.602612 -0.438872 0.991974 -2.723839 0.335517 0.000000 0.000000 0.000000 0.000000 0.000000 0.000000 0.060522 -0.061300 -19.727640 -0.000000 0.000000 0.000000 -3.028889 3.200491 1.988853 0.000000 0.000000 0.000000 0.060522 -0.061300 -19.727640 -0.000000 0.000000 0.000000 0.339001 0.977450 -0.349213 0.000000 0.000000 0.000000
-71.114977 80.002931 325.645096 -0.093836 0.030463 19.742657 0.078030 -0.060370 -19.742591 -0.000000 0.000000 0.000000 -0.000000 0.000000 0.000000 0.000000 0.000000 0.000000 -0.000000 0.000000 0.000000 -0.000000 0.000000 0.000000 -0.000000 0.000000 0.000000 -0.131252 6.041428 1.508469 0.000000 0.000000 0.000000 0.000000 0.000000 0.000000 -0.000000 0.000000 0.000000 -0.000000 0.000000 0.000000 -0.087833 1.313942 -0.362211 0.318039 -0.298463 0.334827 0.000000 0.000000 0.000000 0.000000 0.000000 0.000000 0.078030 -0.060370 -19.742591 -0.000000 0.000000 0.000000 -3.014888 2.721354 2.000457 0.000000 0.000000 0.000000 0.078030 -0.060370 -19.742591 -0.000000 0.000000 0.000000 -0.000000 0.000000 0.000000 0.000000 0.000000 0.000000
-71.123565 79.998877 325.683454 -0.118312 0.009788 19.741767 0.108052 -0.049176 -19.741710 -0.000000 0.000000 0.000000 -0.000000 0.000000 0.000000 0.000000 0.000000 0.000000 -0.000000 0.000000 0.000000 -0.000000 0.000000 0.000000 -0.000000 0.000000 0.000000 -0.528277 6.230626 1.713215 0.000000 0.000000 0.000000 0.000000 0.000000 0.000000 -0.000000 0.000000 0.000000 -0.000000 0.000000 0.000000 0.481789 1.060097 -0.320630 0.624972 -0.310032 0.147880 0.000000 0.000000 0.000000 0.000000 0.000000 0.000000 0.108052 -0.049176 -19.741710 -0.000000 0.000000 0.000000 -2.637508 1.936926 1.767209 0.000000 0.000000 0.000000 0.108052 -0.049176 -19.741710 -0.000000 0.000000 0.000000 0.384205 -1.073855 -0.073014 0.000000 0.000000 0.000000
-71.130508 80.000301 325.724370 -0.139841 0.002894 19.778476 0.130612 -0.050043 -19.778416 -0.000000 0.000000 0.000000 -0.000000 0.000000 0.000000 0.000000 0.000000 0.000000 -0.000000 0.000000 0.000000 -0.000000 0.000000 0.000000 -0.000000 0.000000 0.000000 -2.121833 2.895441 1.504015 0.000000 0.000000 0.000000 0.000000 0.000000 0.000000 -0.000000 0.000000 0.000000 0.407911 -0.950481 -0.064752 0.843109 3.325559 -0.691623 0.104164 -5.045442 0.552598 0.000000 0.000000 0.000000 0.000000 0.000000 0.000000 0.130612 -0.050043 -19.778416 -0.000000 0.000000 0.000000 -1.966882 1.003729 1.336201 0.000000 0.000000 0.000000 0.130612 -0.050043 -19.778416 -0.000000 0.000000 0.000000 0.423954 -1.511703 -0.031050 0.000000 0.000000 0.000000
-71.140037 79.994649 325.759504 -0.165302 0.001901 19.788553 0.154897 -0.057751 -19.788472 -0.000000 0.000000 0.000000 -0.000000 0.000000 0.000000 0.000000 0.000000 0.000000 -0.000000 0.000000 0.000000 -0.000000 0.000000 0.000000 -0.500738 0.726400 0.191631 -3.011048 -0.423290 1.095438 0.000000 0.000000 0.000000 0.000000 0.000000 0.000000 -0.000000 0.000000 0.000000 0.784116 -1.466307 -0.126318 2.268162 4.394807 -0.959103 -0.307759 -7.175933 0.659505 0.000000 0.000000 0.000000 0.000000 0.000000 0.000000 0.154897 -0.057751 -19.788472 -0.000000 0.000000 0.000000 -0.043784 -3.610220 0.252318 0.000000 0.000000 0.000000 0.154897 -0.057751 -19.788472 -0.000000 0.000000 0.000000 0.320972 -1.751380 0.066535 0.000000 0.000000 0.000000
